<svg xmlns="http://www.w3.org/2000/svg">
  <symbol id="construction" viewBox="0 0 116 111">
    <path d="M14.8 84.3l30.5-35.6 7.5-9.3-4-3.6-4.2-4-8.6 8.3L3 73.3A10 10 0 0 0 0 80.7c0 4.7 3.3 7.8 8 7.4 2.7 0 5-1.5 7.1-3.8h-.3zm75.7-52l-2.9-2.9-3.4-3c-.4-.4-.9-.6-1.4-.6l-3.5.2h-.1c-2.6 0-3.8-1-4-3.5V20c0-.7-.3-1.3-1-2L62.5 7A25.5 25.5 0 0 0 41 .3c-2.4.4-4.9 1.2-7 2.4-1.5.7-1 2.6.4 2.8 2.8 0 5.2.7 7.4 1.7 5.4 2.4 8.6 7 8.6 12.6 0 2.6-.7 5.1-2 7.6l4.6 4.3 3.8 3.4c1.5-1.4 1.9-1.7 2.2-1.7a5.8 5.8 0 0 1 5.5-.7l1.8 1.2a6 6 0 0 1 1.2 7.6l1.7 1.5 7.2 6.2s.5 0 1-.5L88 37.3l2.8-3c.7-.7.9-1.3 0-2.1l-.2.1zm-32 33H71c2.6 0 4 1.3 4 3.9v10.6c0 2.6-1.4 4.2-4.2 4.2H46.3c-3 0-4.3-1.6-4.3-4.5V69.3c0-2.7 1.4-4 4.3-4h12.2zm41 0h12.4c2.4 0 4 1.3 4 3.7v11c0 2.4-1.4 3.8-3.9 4H86.7c-2.2 0-3.7-1.7-3.7-4V69.2c0-2.6 1.5-4 4-4h12.5zm-19.8 45.4H67.3c-2.6 0-4.1-1.4-4.1-4.2V96.2c0-2.6 1.5-4.1 4-4.1h25.2c2.3 0 3.8 1.7 3.8 3.8V107c0 2.4-1.5 3.8-3.8 3.8H79.7v-.1zM40.4 92h12.3c2.5 0 4 1.3 4 4v10.6c0 2.6-1.5 4-4 4H28c-2.8 0-4.2-1.4-4.2-4V96c0-2.6 1.4-4 4-4h12.7-.2z"/>
  </symbol>

  <symbol id="project-management" viewBox="0 0 107 96">
    <path d="M74.8 15.4l16.7 16.8c.7.7.7 1.8 0 2.6L51 75.3l-17.3 2a3.6 3.6 0 0 1-4-4l2-17.3 40.5-40.6c.7-.7 1.9-.7 2.6 0zm30-4.2l-9-9a7.3 7.3 0 0 0-10.2 0L79 8.6c-.7.7-.7 1.8 0 2.6L95.7 28c.8.7 1.9.7 2.6 0l6.6-6.6a7.3 7.3 0 0 0 0-10.2zm-33.5 53v19H12V23.8h42.7c.6 0 1.1-.3 1.6-.7l7.4-7.4a2.2 2.2 0 0 0-1.6-3.8H9c-5 0-9 4-9 8.9v65.4C0 91 4 95 9 95h65.3c5 0 9-4 9-9V57a2.2 2.2 0 0 0-3.9-1.6L72 62.7c-.4.4-.7 1-.7 1.6z"/>
  </symbol>

  <symbol id="planning-design" viewBox="0 0 115 92">
    <path d="M92 34.3l-1.4 2.6c-.6 1-1.7 1.3-2.8 1-2-.8-4-2-5.7-3.4-.9-.7-1-1.9-.5-2.8L83 29a15.5 15.5 0 0 1-2.8-5h-3c-1 0-2-.7-2.2-1.8-.3-2.1-.4-4.4 0-6.6.2-1.1 1.1-1.9 2.2-1.9h3c.6-1.8 1.6-3.5 2.8-5l-1.4-2.5c-.6-1-.4-2.1.5-2.8C83.8 2 85.7.9 87.8 0c1-.3 2.2 0 2.8 1L92 3.7a16 16 0 0 1 5.7 0L99.2 1c.5-1 1.7-1.3 2.7-1 2.1.8 4 2 5.8 3.4.8.7 1 1.9.5 2.8L106.7 9c1.2 1.4 2.2 3 2.9 4.9h3c1 0 2 .8 2.1 1.8.4 2.2.4 4.5 0 6.7-.2 1.1-1 1.9-2.2 1.9h-3c-.6 1.8-1.5 3.5-2.8 5l1.5 2.5c.5 1 .3 2.1-.5 2.8a20 20 0 0 1-5.8 3.3c-1 .4-2.2 0-2.7-1l-1.5-2.5a16 16 0 0 1-5.7 0zm-1.9-10.6c7 5.4 14.8-2.5 9.5-9.5-6.9-5.3-14.8 2.6-9.5 9.5zM69.4 51.4l6 3c1.9 1 2.7 3.3 2 5.2a42.4 42.4 0 0 1-7.7 11.9 4.3 4.3 0 0 1-5.4 1L59 69.3c-2.9 2.5-6.2 4.4-9.8 5.7v6c0 2.1-1.5 3.9-3.6 4.3-4.5.7-9.1.7-13.6 0-2-.4-3.6-2.2-3.6-4.3v-6c-3.7-1.3-7-3.2-9.9-5.7l-5.2 3c-1.8 1-4.1.6-5.4-1-3-3.4-6-7.4-7.6-11.8-.7-2 0-4.1 1.9-5.2l6-3c-.8-3.8-.8-7.6 0-11.4l-6-3a4.3 4.3 0 0 1-2-5.2C2 27.4 5 23.4 8 19.9c1.3-1.6 3.6-2 5.4-1l5.2 3c2.9-2.4 6.2-4.3 9.9-5.6v-6c0-2.1 1.5-4 3.5-4.3a41 41 0 0 1 13.7 0c2 .3 3.6 2.1 3.6 4.2v6c3.6 1.4 7 3.3 9.8 5.8l5.3-3c1.8-1 4-.7 5.4 1 3 3.4 6 7.4 7.6 11.7.7 2 0 4.2-1.8 5.3l-6 3c.6 3.8.6 7.6 0 11.4zm-21.1 3.8c10.6-13.9-5.2-29.6-19-19-10.6 13.8 5.2 29.6 19 19zM92 88l-1.4 2.6c-.6 1-1.7 1.3-2.8 1-2-.8-4-2-5.7-3.4-.9-.7-1-1.9-.5-2.8l1.4-2.6a15.5 15.5 0 0 1-2.8-4.9h-3c-1 0-2-.8-2.2-1.9-.3-2.1-.4-4.4 0-6.6.2-1.1 1.1-1.9 2.2-1.9h3c.6-1.8 1.6-3.5 2.8-5L81.6 60c-.6-1-.4-2.1.5-2.8 1.7-1.4 3.6-2.6 5.7-3.3 1-.4 2.2 0 2.8 1l1.4 2.5a16 16 0 0 1 5.7 0l1.5-2.6c.5-1 1.7-1.3 2.7-1 2.1.8 4 2 5.8 3.4.8.7 1 1.9.5 2.8l-1.5 2.6c1.2 1.4 2.2 3.1 2.9 5h3c1 0 2 .7 2.1 1.8.4 2.1.4 4.4 0 6.6-.2 1.1-1 1.9-2.2 1.9h-3c-.6 1.8-1.5 3.5-2.8 5l1.5 2.5c.5 1 .3 2.1-.5 2.8a20 20 0 0 1-5.8 3.4c-1 .3-2.2 0-2.7-1L97.7 88a16 16 0 0 1-5.7 0zm-1.9-10.6c7 5.4 14.8-2.5 9.5-9.5-6.9-5.3-14.8 2.6-9.5 9.5z"/>
  </symbol>

  <symbol id="mail" viewBox="0 0 512 384">
    <path d="M502.3 126.8a6 6 0 0 1 9.7 4.7V336a48 48 0 0 1-48 48H48a48 48 0 0 1-48-48V131.6a6 6 0 0 1 9.7-4.7c22.4 17.4 52.1 39.5 154.1 113.6 21.1 15.4 56.7 47.8 92.2 47.6 35.7.3 72-32.8 92.3-47.6 102-74.1 131.6-96.3 154-113.7zM256 256c23.2.4 56.6-29.2 73.4-41.4 132.7-96.3 142.8-104.7 173.4-128.7A24 24 0 0 0 512 67V48a48 48 0 0 0-48-48H48A48 48 0 0 0 0 48v19a24 24 0 0 0 9.2 18.9c30.6 23.9 40.7 32.4 173.4 128.7 16.8 12.2 50.2 41.8 73.4 41.4z"/>
  </symbol>

  <symbol id="phone" viewBox="0 0 512 512">
    <path d="M493.4 24.6l-104-24a24.2 24.2 0 0 0-27.5 13.9l-48 112a24 24 0 0 0 6.9 28l60.6 49.6a370.6 370.6 0 0 1-177.2 177.2l-49.6-60.6a24 24 0 0 0-28-6.9l-112 48a24.3 24.3 0 0 0-14 27.6l24 104A24 24 0 0 0 48 512 464 464 0 0 0 512 48a24 24 0 0 0-18.6-23.4z"/>
  </symbol>

  <symbol id="location" viewBox="0 0 384 512">
    <path d="M172.3 501.7C27 291 0 269.4 0 192a192 192 0 1 1 384 0c0 77.4-27 99-172.3 309.7a24 24 0 0 1-39.4 0zM192 272a80 80 0 1 0 0-160 80 80 0 0 0 0 160z"/>
  </symbol>

  <symbol id="bars" viewBox="0 0 448 392">
    <path d="M16 72h416a16 16 0 0 0 16-16V16a16 16 0 0 0-16-16H16A16 16 0 0 0 0 16v40a16 16 0 0 0 16 16zm0 160h416a16 16 0 0 0 16-16v-40a16 16 0 0 0-16-16H16a16 16 0 0 0-16 16v40a16 16 0 0 0 16 16zm0 160h416a16 16 0 0 0 16-16v-40a16 16 0 0 0-16-16H16a16 16 0 0 0-16 16v40a16 16 0 0 0 16 16z"/>
  </symbol>

  <symbol id="times" viewBox="0 0 320 320">
    <path d="M207.6 160L315.3 52.3a16 16 0 0 0 0-22.6l-25-25a16 16 0 0 0-22.6 0L160 112.4 52.3 4.7a16 16 0 0 0-22.6 0l-25 25a16 16 0 0 0 0 22.6L112.4 160 4.7 267.7a16 16 0 0 0 0 22.6l25 25a16 16 0 0 0 22.6 0L160 207.6l107.7 107.7a16 16 0 0 0 22.6 0l25-25a16 16 0 0 0 0-22.6L207.6 160z"/>
  </symbol>
</svg>
