<svg xmlns="http://www.w3.org/2000/svg" id="logo" viewBox="0 0 289 82">
    <path d="M51.9.6H26.8v26.1L51.9.6zm6.7 47.7a9 9 0 0 1 1.2 13.5l-19 20h43V.5h-12L40.5 35a2 2 0 0 0 .5 3 101 101 0 0 1 17.5 10.2l.1.1z"/>
    <path d="M12 81.7l31.7-25.9a7.5 7.5 0 0 0 .1-11.8c-4.9-4-10.8-6.4-17-7.3v19l-22 15V.7h-4v81H12zM106.3 10l4.7 6c.5.7 1 1.2 1.7 1.7.3.2.7.3 1.1.3v.4h-7V18c.3 0 .6 0 .9-.2l.2-.4c-.2-.6-.5-1-1-1.5l-3-3.9-.5.4V16c0 .4 0 .9.2 1.3 0 .2.2.3.4.4l1 .2v.4h-6.7V18h.5c.3 0 .7 0 1-.2.2-.1.3-.3.3-.5l.1-1.2V7.2 5.9a1 1 0 0 0-.5-.4c-.3-.2-.7-.2-1-.2h-.4V5h6.7v.4c-.3 0-.7 0-1 .2a1 1 0 0 0-.4.5l-.1 1.2v4.2l5-4c.7-.6 1-1 1-1.4 0-.2-.3-.4-.5-.5l-1-.2V5h5.2v.4c-.4 0-.8.1-1.1.3L110.3 7l-4 3z"/>
    <path d="M120 4.8a6.6 6.6 0 0 1 7.2 6.8 7 7 0 0 1-1.5 4.4 6.6 6.6 0 0 1-5.6 2.6c-2.1.1-4.2-.8-5.6-2.4a7 7 0 0 1-1.5-4.6 6.7 6.7 0 0 1 7-6.9v.1zm.1.6a3 3 0 0 0-2.8 1.9 10 10 0 0 0-.8 4.4c0 1.8.4 3.5 1.3 5 .5.7 1.4 1.1 2.3 1.1.6 0 1.2-.2 1.7-.5a4 4 0 0 0 1.3-2c.4-1.2.5-2.4.5-3.6a12 12 0 0 0-.5-4c-.2-.7-.6-1.4-1.2-1.9a3 3 0 0 0-1.8-.4zm12.6.3v5.4h.3a2 2 0 0 0 1.8-.8 5 5 0 0 0 .8-2.3h.4v7h-.4c0-.7-.2-1.3-.5-1.9-.2-.4-.4-.8-.8-1-.5-.2-1-.2-1.5-.2V17c0 .2.2.3.4.4.3.2.6.2.9.2h.8c2.2.2 4.2-1.3 4.6-3.5h.4l-.6 4.2h-11.7V18h.5c.3 0 .7 0 1-.2.1-.1.3-.3.3-.5l.1-1.2V7.2v-1a1 1 0 0 0-.4-.6c-.3-.2-.6-.3-1-.3h-.4V5h11.2v4h-.4c-.1-.7-.4-1.4-.8-2a3 3 0 0 0-1.5-1c-.7-.1-1.3-.2-2-.1l-1.5-.2zm12.9 6.5V16l.1 1.4.5.4c.4.2.9.2 1.3.2v.4h-6.9V18c.4 0 .9 0 1.3-.2.2 0 .3-.2.4-.4l.2-1.4V7.3c0-.5 0-1-.2-1.4a1 1 0 0 0-.4-.4c-.4-.2-.9-.2-1.3-.2V5h6.2c1.2 0 2.4.1 3.6.4a3.4 3.4 0 0 1 2.5 3.3c0 1-.3 1.9-1 2.5-.6.5-1.3.8-2 .9l3.3 4.5.9 1.1c.3.2.6.4.9.4v.4h-4.2l-4.3-6.1-.9-.2zm0-6.5v5.8h.6c.7 0 1.3 0 2-.2a2 2 0 0 0 1-1 3.3 3.3 0 0 0-.3-3.9c-.6-.5-1.5-.8-2.3-.7h-1zm18.7-1.1l.1 4.5h-.4c-.1-1-.6-2-1.4-2.7-.6-.6-1.5-1-2.4-1-.6 0-1.1.1-1.6.5-.4.3-.6.8-.6 1.3 0 .3 0 .6.2.8.3.4.6.7 1 .9l2 1.1c1.2.5 2.4 1.2 3.3 2.2.5.7.8 1.5.8 2.3 0 1.1-.4 2.2-1.3 3-1 .8-2.2 1.2-3.4 1.1l-1.2-.1-1.4-.5a2 2 0 0 0-.8-.2 1 1 0 0 0-.5.2l-.5.6h-.3v-5h.3c.2 1.3.8 2.4 1.7 3.3a4 4 0 0 0 2.6 1c.6 0 1.3-.1 1.8-.5.4-.3.7-.9.7-1.4 0-.4-.1-.7-.3-1l-.8-.8-1.8-1c-1-.4-1.8-1-2.6-1.5-.5-.4-.9-.9-1.2-1.4-.3-.6-.4-1.2-.4-1.8 0-1 .4-2 1.1-2.7.8-.7 2-1 3-1h1.3l1.1.5c.3.2.6.3 1 .3l.4-.1.2-.8.3-.1zm-54.9 25.9h4v.4c-.4 0-.7.2-1 .4l-1 1.4c-.5 1-1.1 1.8-1.8 2.6.5.5 1 .9 1.7 1.2.2.2.5.3.8.3.5 0 .9-.3 1.3-1l.4.2c-.4.9-1 1.7-1.7 2.3-.5.3-1 .5-1.6.5-.5 0-1-.2-1.4-.4-.6-.3-1.2-.7-1.7-1.2-.7.5-1.5.9-2.3 1.2a7 7 0 0 1-2.3.4c-1 0-2.2-.3-3-1a3.1 3.1 0 0 1-1.1-2.4c0-1 .3-1.9 1-2.6.9-.8 1.9-1.5 3-1.9a7.1 7.1 0 0 1-.4-2.4c0-1 .3-2 1-2.6a4 4 0 0 1 2.9-1c.8 0 1.6.1 2.2.6.5.4.8 1 .8 1.6 0 .8-.2 1.5-.8 2-.8.6-1.7 1.1-2.7 1.4 1 1.5 2 3 3.3 4.2.8-.7 1.3-1.7 1.5-2.7a1 1 0 0 0-.3-.7c-.2-.2-.5-.4-.8-.4v-.4zm-6.3 1l-1.1.8c-.3.3-.5.8-.5 1.2 0 .7.2 1.3.6 1.9.3.5.7 1 1.2 1.4.5.3 1 .5 1.6.5.3 0 .5 0 .8-.2l1-.5a19.2 19.2 0 0 1-3.6-5v-.1zm2.4-1.6c.5-.1 1-.4 1.4-.8.2-.3.3-.6.3-1a3 3 0 0 0-.6-2c-.3-.3-.6-.4-1-.4a1 1 0 0 0-.7.3c-.2.3-.3.6-.3 1l.1 1 .8 2v-.1zm22.7 4.8h-4.8L123 36a3 3 0 0 0-.3 1c0 .4.2.7.5.9l1.3.2v.4H120v-.4a2 2 0 0 0 1.2-.6c.5-.6.8-1.3 1.1-2L127 25h.2l4.8 11c.2.7.6 1.4 1.1 2 .3.2.6.3 1 .3v.4h-6.5v-.4h.3c.3 0 .7 0 1-.2.2 0 .3-.3.3-.5v-.3l-.4-.8-.6-1.8zm-.4-.7l-2-4.6-2 4.6h4zm15.8-9.2l.1 4.5h-.4c-.1-1-.6-2-1.4-2.7-.6-.6-1.5-1-2.4-1-.6 0-1.1.1-1.6.5a1.7 1.7 0 0 0-.4 2.1c.3.4.6.7 1 .9l2.1 1.1c1.2.5 2.3 1.3 3.2 2.2a3.8 3.8 0 0 1-.5 5.2c-.9.8-2 1.2-3.3 1.2l-1.2-.1-1.4-.5-.8-.2a1 1 0 0 0-.5.2l-.5.6h-.4v-5h.4c.2 1.2.7 2.3 1.6 3.2.7.7 1.7 1.1 2.7 1.1.7 0 1.3-.2 1.8-.6.4-.4.6-.9.6-1.4 0-.3 0-.6-.2-.9l-.8-.8-1.8-1c-1-.4-1.8-1-2.6-1.6-.5-.4-1-.9-1.3-1.4-.3-.5-.4-1.1-.4-1.7 0-1 .4-2 1.2-2.7.8-.8 1.9-1.2 3-1.1l1.2.1 1.2.5.9.3c.2 0 .3 0 .4-.2l.3-.7.2-.1zm11.1 0l.1 4.5h-.4c-.1-1-.6-2-1.4-2.7-.6-.6-1.5-1-2.4-1-.6 0-1.1.1-1.6.5-.4.3-.6.8-.6 1.3 0 .3 0 .6.2.8.3.4.6.7 1 .9l2 1.1c1.2.5 2.3 1.3 3.2 2.2a3.8 3.8 0 0 1-.5 5.2c-.9.8-2 1.2-3.3 1.2a5 5 0 0 1-2.6-.6l-.8-.2a1 1 0 0 0-.5.2l-.5.6h-.3v-5h.3c.2 1.2.8 2.3 1.7 3.2a4 4 0 0 0 2.7 1.1c.7 0 1.3-.2 1.8-.6.7-.6.8-1.5.4-2.3l-.8-.8-1.8-1c-1-.4-1.8-1-2.6-1.6-.5-.4-1-.8-1.3-1.4-.3-.5-.4-1.1-.4-1.7 0-1 .4-2 1.1-2.7.8-.8 1.9-1.2 3-1.1l1.3.1 1.1.5c.3.2.6.3 1 .3.2 0 .3 0 .4-.2l.2-.7.3-.1zm9.1.2a6.6 6.6 0 0 1 7.2 6.8c0 1.6-.5 3.2-1.5 4.5a6.6 6.6 0 0 1-5.6 2.5 6.8 6.8 0 0 1-7.1-7c0-1.9.7-3.7 2-5 1.3-1.3 3.2-2 5-1.8zm.1.6a3 3 0 0 0-2.8 1.9 10 10 0 0 0-.7 4.4c-.1 1.8.3 3.5 1.2 5 .5.8 1.4 1.2 2.3 1.2.6 0 1.2-.2 1.7-.5.7-.5 1.1-1.2 1.4-2 .3-1.2.5-2.4.4-3.6 0-1.4-.1-2.7-.5-4-.2-.7-.6-1.3-1.2-1.8a3 3 0 0 0-1.8-.6zm21-.8v4.7h-.4a5 5 0 0 0-1.6-2.8 4.1 4.1 0 0 0-6.5 1.6c-.5 1-.7 2.2-.7 3.3 0 1.1.2 2.2.5 3.3.2.9.7 1.6 1.4 2.2a4 4 0 0 0 2.5.7c.8 0 1.6-.1 2.3-.5a8 8 0 0 0 2.2-2v1.2c-.6.7-1.4 1.3-2.3 1.7-.9.4-1.8.6-2.8.6-1.3 0-2.6-.3-3.8-.9a6 6 0 0 1-2.6-2.4 7.3 7.3 0 0 1 2.8-9.8c1-.6 2.3-1 3.6-1 1 0 2 .3 3 .7l1.2.4c.2 0 .4-.1.5-.3.2-.2.3-.4.3-.7h.4zm8.1 13.3v.4h-7v-.4h.5c.3 0 .7 0 1-.2l.3-.4.1-1.3v-8.8-1.3a1 1 0 0 0-.5-.4c-.3-.2-.7-.2-1-.2h-.3v-.4h7v.4h-.5c-.3 0-.7 0-1 .2a1 1 0 0 0-.3.5l-.1 1.2V37.5l.5.5c.3.1.7.2 1 .1h.3zm9-3.4h-4.6l-.6 1.3a3 3 0 0 0-.3 1c0 .4.2.7.5.9l1.3.2v.4h-4.5v-.4a2 2 0 0 0 1.2-.6c.5-.6.9-1.3 1.2-2L201 25h.2l4.8 11c.2.7.6 1.4 1.1 2 .3.2.6.3 1 .3v.4h-6.5v-.4h.3c.3 0 .7 0 1-.2.2 0 .3-.3.3-.5v-.3l-.4-.8-.8-1.8zm-.2-.7l-2-4.6-2 4.6h4zm17.8-8.9v3.7h-.3c-.1-.6-.4-1.2-.7-1.8-.2-.4-.6-.8-1-1-.4-.1-.9-.2-1.3-.1h-1V37.5l.5.5c.3.1.7.2 1 .1h.4v.4h-7v-.4h.4c.3 0 .7 0 1-.2l.3-.4.2-1.3V26h-1c-.7 0-1.4.1-2 .6-.6.6-1 1.4-1.1 2.3h-.4V25l12 .1zm6.1.8v5.4h.3c.7 0 1.5-.2 1.9-.8a5 5 0 0 0 .7-2.3h.4v7h-.4c0-.7-.2-1.3-.5-1.9a2 2 0 0 0-.9-1c-.4-.2-1-.2-1.4-.2v5.1c0 .2.2.3.4.4l.9.1h.8c2.2.2 4.2-1.3 4.6-3.5h.4l-.7 4.3h-11.6V38h.5c.3 0 .7 0 1-.2.2-.1.3-.3.3-.5l.1-1.2v-8.8-1.1a1 1 0 0 0-.4-.5c-.3-.2-.6-.3-1-.3h-.4V25h11.2v4h-.4c-.1-.7-.4-1.4-.8-2a3 3 0 0 0-1.5-1c-.7-.2-1.3-.2-2-.2l-1.5.1zm17.3-1.1v4.5h-.4c-.1-1-.6-2-1.4-2.7-.6-.6-1.5-1-2.4-1-.6 0-1.1.1-1.6.5-.4.3-.6.8-.6 1.3 0 .3 0 .6.2.8.3.4.6.7 1 .9l2 1.1c1.2.5 2.3 1.3 3.2 2.2.6.7.9 1.5.9 2.4 0 1-.5 2-1.3 2.8-1 .8-2.2 1.3-3.4 1.2a5 5 0 0 1-1.2 0l-1.4-.6-.8-.2a1 1 0 0 0-.5.2l-.5.6h-.3v-5h.3c.2 1.2.8 2.3 1.7 3.2a4 4 0 0 0 2.7 1.1c.6 0 1.2-.2 1.7-.6.7-.6.8-1.5.4-2.3l-.7-.8-1.8-1c-1-.4-1.9-1-2.7-1.6-.5-.4-.9-.9-1.2-1.4-.3-.5-.4-1.1-.4-1.7 0-1 .4-2 1.2-2.7.8-.8 1.9-1.2 3-1.1l1.2.1 1.2.5.9.3c.2 0 .3 0 .4-.2l.3-.7.3-.1zM103.4 46v5.5h.3c.7 0 1.4-.3 1.8-.8.4-.7.7-1.5.7-2.3h.4v7h-.4a5 5 0 0 0-.5-1.9 2 2 0 0 0-.8-1c-.5-.2-1-.3-1.5-.2v5.1c0 .2.2.3.4.4l.9.1h.8c2.2.2 4.2-1.3 4.6-3.5h.3l-.6 4.2H98.3v-.3h.4c.3 0 .7 0 1-.2l.4-.5v-10-1.1a1 1 0 0 0-.3-.6c-.3-.2-.7-.2-1-.2h-.5v-.4h11.2v4h-.4c-.1-.7-.4-1.4-.8-2a3 3 0 0 0-1.4-1c-.7-.2-1.4-.2-2.1-.2l-1.4-.1zm12.6-.7l6.6 8.3V48c0-.6 0-1.2-.3-1.7a2 2 0 0 0-1.6-.5v-.4h4.3v.4c-.4 0-.8.1-1.1.3l-.5.5-.2 1.4v11h-.2l-9-11.1v8.5c0 .5.1 1.1.5 1.5.3.3.8.4 1.2.4h.3v.4h-4.8v-.4c.6 0 1.1 0 1.6-.4.3-.4.5-1 .4-1.5v-9.5l-.3-.3-.7-.7-1-.2v-.4h4.8zm22.7-.3v4.7h-.4a6 6 0 0 0-2-3c-.8-.6-1.8-1-2.9-1-1 0-1.8.4-2.5 1s-1.2 1.4-1.4 2.3a11.5 11.5 0 0 0 .1 6.5c.2.8.7 1.5 1.4 2a4.2 4.2 0 0 0 3.4.7l1-.3V55l-.1-1a1 1 0 0 0-.5-.4l-.8-.2h-.3V53h6.5v.4c-.3 0-.7 0-1 .2a1 1 0 0 0-.5.5V57.8c-.9.4-1.8.6-2.7.8l-3 .3a8.3 8.3 0 0 1-5.3-1.8 6.6 6.6 0 0 1-2.2-5c0-1.9.7-3.7 2.1-5A7.3 7.3 0 0 1 133 45a8.9 8.9 0 0 1 3.2.6l1.1.4c.2 0 .4 0 .6-.2l.4-.8h.4zm8.6 13.3v.4h-7v-.4h.4c.3 0 .7 0 1-.2.2 0 .3-.2.4-.4V47.6v-1.3a1 1 0 0 0-.5-.4l-.9-.2h-.4v-.4h7v.4h-.5c-.3 0-.6 0-.9.2a1 1 0 0 0-.4.5l-.1 1.2v8.8l.1 1.3.5.4.8.2h.5zm5.6-13l6.6 8.3V48c0-.6 0-1.2-.4-1.7-.4-.4-1-.6-1.6-.5v-.4h4.5v.4c-.4 0-.8.1-1.1.3l-.5.5c-.1.5-.2 1-.1 1.4v11h-.4l-9-11.1v8.5c0 .5.1 1.1.5 1.5.4.3.8.4 1.3.4h.3v.4h-4.8v-.4c.6 0 1.1 0 1.6-.4.3-.4.5-1 .4-1.5v-9.5l-.3-.3-.7-.7-1-.2v-.4h4.7zm15.1.7v5.5h.3c.7 0 1.4-.3 1.8-.8a5 5 0 0 0 .7-2.3h.4v7h-.4c0-.7-.2-1.3-.5-1.9-.2-.4-.4-.8-.8-1-.5-.2-1-.2-1.5-.2v5.1c0 .2.2.3.4.4l.9.1h.8c1 0 2.1-.3 3-.9.8-.7 1.4-1.6 1.6-2.6h.3l-.6 4.2h-11.6v-.3h.5c.3 0 .7 0 1-.2.2-.1.3-.3.3-.5l.1-1.2v-8.8-1.1l-.3-.6c-.3-.2-.7-.2-1-.2h-.5v-.4H174v4h-.4c-.1-.7-.4-1.4-.8-2a3 3 0 0 0-1.4-1c-.7-.2-1.4-.2-2.1-.2L168 46zm13 0v5.5h.2c.7 0 1.4-.3 1.8-.8a5 5 0 0 0 .8-2.3h.3v7h-.3c0-.7-.2-1.3-.5-1.9-.2-.4-.6-.8-1-1-.4-.2-1-.2-1.4-.2V56l.1 1.4c0 .2.2.3.4.4l.8.1h.8c1 0 2.1-.3 3-.9.8-.7 1.4-1.6 1.6-2.6h.4l-.6 4.2h-11.6v-.3h.5c.3 0 .6 0 .9-.2l.4-.5.1-1.2v-8.8-1.1c0-.2-.2-.5-.4-.6-.3-.2-.7-.2-1-.2h-.4v-.4H187v4h-.4c-.1-.7-.4-1.4-.8-2a3 3 0 0 0-1.4-1c-.7-.2-1.4-.2-2.1-.2L181 46zm12.8 6.6v3.8l.1 1.3.5.5 1.2.1v.4h-6.8v-.4l1.2-.1.5-.5.1-1.4v-8.6l-.1-1.4a1 1 0 0 0-.5-.4l-1.2-.2v-.4h6.2c1.2 0 2.4.1 3.5.4.7.2 1.4.6 1.9 1.2s.7 1.3.7 2.1c0 1-.4 1.9-1.1 2.5-.5.5-1.2.8-1.9.9l3.2 4.5 1 1 .8.4v.4H199l-4.3-6.1h-.9zm0-6.5v5.8h.5c.7 0 1.4 0 2-.3a2 2 0 0 0 1.2-.9c.2-.5.3-1.1.3-1.7a2.6 2.6 0 0 0-3-3l-1 .1zm17 12.2v.4h-7v-.4h.4c.3 0 .7 0 1-.2l.3-.4.1-1.3v-8.8-1.3a1 1 0 0 0-.5-.4l-.9-.2h-.4v-.4h7v.4h-.5c-.3 0-.7 0-1 .2a1 1 0 0 0-.3.5l-.1 1.2V57.7l.5.4c.3.2.7.2 1 .2h.4zm5.5-13l6.6 8.3V48c0-.6 0-1.2-.3-1.7a2 2 0 0 0-1.6-.5v-.4h4.4v.4c-.4 0-.8.1-1.1.3l-.5.5c-.1.5-.2 1-.1 1.4v11h-.4l-9-11.1v8.5c0 .6.2 1.1.6 1.5.3.3.8.4 1.2.4h.3v.4h-4.7v-.4c.5 0 1 0 1.5-.4.3-.4.5-1 .4-1.5v-9.5l-.3-.3-.7-.7-1-.2v-.4h4.7zM239 45v4.7h-.3a6 6 0 0 0-2-3c-.8-.6-1.8-1-2.9-1-1 0-1.8.4-2.5 1s-1.1 1.4-1.3 2.3a11.5 11.5 0 0 0 .1 6.5c.2.8.7 1.6 1.4 2.1s1.5.7 2.4.7a4.9 4.9 0 0 0 2-.4V55v-1a1 1 0 0 0-.5-.4l-.9-.2h-.3V53h6.5v.4c-.3 0-.7 0-1 .2a1 1 0 0 0-.4.5l-.1.9v2.8c-.9.4-1.8.6-2.7.8l-2.9.3a8.2 8.2 0 0 1-5.4-1.8 6.6 6.6 0 0 1-2.2-5c0-1.9.8-3.7 2.2-5a7.3 7.3 0 0 1 5.3-2.2 8.9 8.9 0 0 1 3.2.6l1.2.4c.2 0 .4 0 .5-.2l.4-.8.2.1zm19.6 9l-.5 4.7h-11.8v-.4h.4c.3 0 .7 0 1-.2l.3-.4.1-1.3v-8.8-1.3a1 1 0 0 0-.5-.4l-.9-.2h-.4v-.4h7v.4h-.5c-.3 0-.7 0-1 .2a1 1 0 0 0-.3.5l-.1 1.2v9.8c0 .2.3.4.5.5h2.3c.6 0 1.2 0 1.8-.3.5-.3 1-.7 1.2-1.2.4-.8.8-1.6 1-2.4h.4zm11.6-8.7V49h-.4c-.1-.6-.4-1.2-.7-1.8l-1-.8c-.4-.2-.9-.2-1.3-.2h-1v10.3l.1 1.3.5.4.9.2h.4v.4h-7v-.4h.5c.3 0 .7 0 1-.2l.3-.4.1-1.3V46.1h-1c-.7 0-1.4.1-2 .6-.6.6-1 1.4-1 2.2h-.4v-3.6h12zm1 13.4v-.4h.4l.9-.1c.2-.1.4-.3.5-.6v-10-1.3a1 1 0 0 0-.5-.4l-.9-.2h-.4v-.4h6c1.3 0 2.6.2 3.8.7 1.1.5 2 1.3 2.7 2.4a7.2 7.2 0 0 1-.7 8.3c-.5.5-1 1-1.7 1.2a9 9 0 0 1-4.2.8h-5.9zm5-12.6v10.4l.1 1 .3.3.8.2c1 0 2-.4 2.5-1.2.9-1.4 1.3-3 1.2-4.7 0-1.4-.2-2.7-.8-4-.3-.7-1-1.4-1.7-1.7-.7-.2-1.5-.3-2.3-.3h-.1zm10.9 9.6a1.6 1.6 0 0 1 1.7 1.6c0 .5-.2.9-.5 1.2-.3.3-.8.4-1.2.4-.4 0-.8-.1-1.1-.4-.3-.3-.5-.7-.5-1.2s.2-.9.5-1.2c.3-.3.7-.4 1.1-.4zM108.9 66.2l-.9 3.6h-.2v-1l-.2-.8-.5-.7-.7-.4-1-.2c-.9 0-1.8.3-2.5.8-1 .7-1.7 1.7-2.2 2.9-.4 1-.7 2-.7 3s.3 2 1 2.7c.6.6 1.5 1 2.4 1a4 4 0 0 0 2-.5c.6-.4 1.2-1 1.6-1.6h.4c-.5.8-1.2 1.5-2 2-1.5.9-3.4 1-5 .2-.7-.4-1.2-1-1.6-1.6-.4-.7-.6-1.4-.6-2.2 0-2.6 1.5-5 3.7-6.2 1-.6 2.2-1 3.4-1a5 5 0 0 1 1.8.4l.6.2.3-.1.5-.5h.4zm7.1 6.5a5 5 0 0 1-4.7 5c-.7 0-1.3-.3-1.8-.8s-.7-1.1-.7-1.8c0-.8.3-1.7.7-2.4a5 5 0 0 1 4-2.6 2.4 2.4 0 0 1 2.5 2.6zm-1.4-.6c0-.4 0-.9-.3-1.2-.3-.3-.6-.4-1-.4-.8 0-1.5.6-2.2 1.7-.6 1-1 2.2-1 3.4 0 .4.1.9.4 1.2.3.3.6.4 1 .4.8 0 1.5-.5 2.2-1.7.6-1 1-2.2 1-3.4h-.1zm5.8-2l-1 3.7c.6-1 1.4-2 2.2-3 .4-.4 1-.7 1.6-.7.3 0 .5.1.7.3l.2.6c0 .4 0 .9-.2 1.3l-1 3.5-.2.7.1.2h.4l1-1 .2.1c-.4.6-1 1-1.5 1.5l-.8.4c-.2 0-.4 0-.5-.2a.7.7 0 0 1-.2-.5c0-.5.1-1 .3-1.4l1-3.2.1-1v-.3h-.3a1 1 0 0 0-.6.1 5 5 0 0 0-1.2 1.2l-1.4 2.2-.6 1.5-.4 1.3H117l1.5-5 .3-1.2c0-.1 0-.2-.2-.3l-.3-.1h-.7v-.3l2.8-.4zm11 0l-.5 2.5h-.3c0-.6-.2-1.1-.5-1.6-.2-.3-.6-.5-1-.5-.3 0-.6.1-.8.3-.2.2-.3.4-.3.7l.1.5.5.7c.5.5 1 1 1.4 1.7.2.3.3.7.3 1.1a2 2 0 0 1-.7 1.5c-.5.5-1.1.7-1.8.7a4 4 0 0 1-1.3-.3l-.5-.1c-.2 0-.4.2-.5.4h-.3l.5-2.7h.3c0 .6.1 1.3.5 1.8.3.4.8.5 1.3.5.4 0 .7-.1 1-.4.2-.2.3-.5.3-.8l-.1-.6a7 7 0 0 0-1-1.4l-1-1.3a2 2 0 0 1-.1-.8c0-.5.2-1 .5-1.3a2 2 0 0 1 1.5-.6h.5l.5.2.6.2c.2 0 .4-.2.5-.4h.4zm8.4.2l-1.4 4.8a7.1 7.1 0 0 0-.3 1.6.1.1 0 0 0 .2 0h.3l.8-1 .3.1c-.3.6-.8 1-1.3 1.5l-.9.3-.5-.1a.6.6 0 0 1-.2-.5l.1-.7.8-2.6c-.6 1-1.4 2.1-2.3 3-.4.6-1 1-1.8 1a.9.9 0 0 1-.9-1c0-.6.2-1.2.4-1.8l.7-2.5.3-1.2-.1-.1-.1-.1-.4.1-.8 1-.2-.3c.3-.5.8-1 1.3-1.3.3-.2.6-.4 1-.4.2 0 .3 0 .4.2l.2.5-.3 1.6-.8 2.6a7 7 0 0 0-.3 1.3l.1.3h.3c.2 0 .5 0 .7-.2a17 17 0 0 0 2.3-2.9c.4-.8.8-1.7 1-2.6l.2-.6h1.2zm5.5-4.3l-2.7 9.6a5.5 5.5 0 0 0-.2 1.1h.2l.4-.1.8-1 .3.3a6 6 0 0 1-1.4 1.5c-.3.2-.6.3-1 .3-.2 0-.4 0-.5-.2a.7.7 0 0 1-.2-.5l.3-1.2 2.2-7.6.2-1-.1-.4a.8.8 0 0 0-.5-.1h-.6v-.3l2.8-.4zm4 2l-.7 2.3h1.3l-.1.5h-1.3l-1.4 4.8a4.8 4.8 0 0 0-.2 1.2h.2c.2 0 .4 0 .6-.2l.8-1 .3.2a6 6 0 0 1-1.4 1.5c-.3.2-.6.3-1 .3-.2 0-.4 0-.5-.2a.8.8 0 0 1-.2-.6c0-.4 0-.9.2-1.3l1.4-4.7H146v-.3c.6-.1 1.1-.4 1.6-.7.5-.5 1-1 1.3-1.7l.4-.1zm4.5 2.1l-1.6 5.7-.2.7v.2h.6l.9-1 .3.1c-.3.6-.8 1-1.3 1.5-.3.2-.6.4-1 .4-.2 0-.4 0-.6-.2a.6.6 0 0 1-.2-.5c0-.3 0-.7.2-1l1-3.6a5.4 5.4 0 0 0 .2-1.5H150.9v-.3l2.9-.5zm-.1-3.2c.2 0 .4 0 .5.2a.8.8 0 1 1-1.3.6c0-.2 0-.4.2-.6l.6-.2zm4.6 3.2l-1 3.7c.6-1 1.4-2 2.2-3 .4-.4 1-.7 1.6-.7.3 0 .5.1.7.3l.2.6c0 .4 0 .9-.2 1.3l-1 3.5-.2.7.1.2h.4l1-1 .2.1c-.4.6-1 1-1.5 1.5l-.8.4c-.2 0-.4 0-.5-.2a.7.7 0 0 1-.2-.5c0-.5.1-1 .3-1.4l1-3.2.1-1v-.3h-.3a1 1 0 0 0-.6.1 5 5 0 0 0-1.2 1.2l-1.4 2.2-.6 1.5-.4 1.3H155l1.5-5 .2-1.2-.1-.3a.5.5 0 0 0-.4-.1h-.6v-.3l2.7-.4zm13.3.5l-.3.9H170l.2.8c0 .8-.4 1.4-1 1.9a4 4 0 0 1-2.5 1c-.5 0-.9.3-1.3.5l-.1.3.1.3c.2.2.5.3.8.3l1.5.3c.7.1 1.3.4 1.8.8.3.3.4.6.4 1s-.2.9-.5 1.2c-.4.4-1 .7-1.5.8-1.3.4-2.6.4-3.9.1-.4 0-.9-.3-1.2-.6l-.3-.9c0-.2 0-.5.2-.7l.6-.6 1.2-.8a.8.8 0 0 1-.3-.6c0-.3.1-.5.3-.7a4 4 0 0 1 1.4-.8c-.5 0-1-.3-1.4-.7-.3-.3-.5-.8-.5-1.3 0-.8.4-1.5 1-2 .7-.6 1.6-1 2.6-1l1 .1c.3 0 .6.2.8.4h2.2zm-6.7 6.9c-.4.1-.7.4-1 .7-.2.3-.4.6-.4 1 0 .3.2.6.5.8.6.4 1.3.5 2 .5s1.4-.1 2-.4c.6-.2.8-.6.8-1 0-.2-.1-.5-.3-.6-.4-.2-.8-.4-1.2-.4l-2.4-.6zm3.9-5.6c0-.4-.1-.7-.4-1-.3-.3-.6-.4-1-.4-.6 0-1.2.4-1.5 1-.4.6-.6 1.2-.6 1.9 0 .4.1.7.4 1 .2.3.6.4.9.4.3 0 .6-.1.8-.3.3-.1.5-.4.7-.6l.5-1 .2-1zm12.6-4.9l-1.2 4.3h1c.6 0 1.1 0 1.6-.3.4-.3.7-.7.8-1.2h.3l-1.1 4h-.3l.1-.9-.1-.6a.8.8 0 0 0-.4-.3h-2l-1.1 3.6-.1.8.1.4.7.1h1a5 5 0 0 0 2.6-.6c.7-.5 1.3-1.2 1.7-2h.3l-1 3.1h-8.5v-.3l1-.1c.2 0 .3-.2.4-.4l.5-1.4 2-6.6.2-1.3c0-.2 0-.3-.2-.4-.3-.2-.6-.2-.9-.2h-.1v-.3h8L186 69h-.3v-.6c0-.2 0-.5-.2-.7-.2-.3-.5-.5-.8-.6-.6-.1-1.2-.2-1.8-.1h-1.5zm8.6 3.1l-1.2 3.7 2.4-3c.4-.4 1-.7 1.5-.7.3 0 .5.1.7.3l.2.6c0 .4 0 .9-.2 1.3l-1 3.5-.2.7.1.2h.4l1-1 .2.1c-.4.6-1 1-1.5 1.5l-.8.4c-.2 0-.4 0-.5-.2a.7.7 0 0 1-.1-.5c0-.5 0-1 .2-1.4l1-3.2.2-1-.1-.3h-.3a1 1 0 0 0-.5.1 5 5 0 0 0-1.3 1.2 17.1 17.1 0 0 0-2 3.7l-.4 1.3h-1.2l1.5-5 .2-1.2-.1-.3-.3-.1h-.7v-.3l2.8-.4zm13.2.5l-.2.9h-1.4c.3 1 0 2-.8 2.7a4 4 0 0 1-2.5 1c-.5 0-.9.3-1.3.5l-.1.3.1.3c.2.2.5.3.8.3l1.5.3c.7.1 1.3.4 1.8.8.3.3.4.6.4 1s-.2.9-.5 1.2c-.4.4-.9.7-1.4.8l-2.1.3c-.6 0-1.3 0-1.9-.2-.4 0-.9-.3-1.2-.6l-.3-.9c0-.2 0-.5.2-.7l.6-.6 1.2-.8a.8.8 0 0 1-.3-.6c0-.3.1-.5.3-.7.4-.4.9-.6 1.4-.8-.5 0-1-.3-1.4-.7-.4-.3-.6-.8-.6-1.3 0-.8.4-1.5 1-2 .7-.7 1.7-1 2.7-1l1 .1c.3 0 .6.2.8.4h2.2zm-6.7 6.9c-.4.1-.7.4-1 .7-.2.3-.3.6-.3 1 0 .3.1.6.4.8.6.4 1.3.5 2 .5s1.4-.1 2-.4c.6-.2 1-.6 1-1 0-.3-.2-.5-.4-.6-.4-.2-.8-.4-1.2-.4l-2.5-.6zm3.9-5.6c0-.4-.1-.7-.4-1-.3-.3-.6-.4-1-.4-.6 0-1.2.4-1.5 1-.4.6-.5 1.2-.5 1.9 0 .4 0 .7.3 1 .3.3.6.4 1 .4.3 0 .6-.1.8-.3.3-.1.5-.4.7-.6l.4-1 .2-1zm6.6-1.8l-1.6 5.7-.2.7.1.2h.5l1-1 .2.1c-.3.6-.8 1-1.3 1.5-.3.2-.6.4-1 .4-.2 0-.4 0-.6-.2a.7.7 0 0 1-.2-.5l.2-1 1-3.6.3-1.2-.1-.3h-1.1v-.3l2.8-.5zm-.1-3.2c.2 0 .4 0 .6.2l.2.6c0 .2 0 .4-.2.6a.8.8 0 1 1-1.2-1.2l.6-.2zm4.7 3.2l-1.1 3.7c.7-1 1.4-2 2.3-3 .4-.4 1-.7 1.6-.7l.6.3.3.6c0 .4 0 .9-.2 1.3l-1 3.5-.2.7v.2h.4l1-1 .2.1c-.4.6-.9 1-1.4 1.5-.3.2-.6.4-.9.4-.2 0-.3 0-.4-.2a.7.7 0 0 1-.2-.5c0-.5.1-1 .3-1.4l.9-3.2.2-1-.1-.3h-.3l-.5.1c-.5.3-1 .7-1.3 1.2l-1.4 2.2-.6 1.5-.4 1.3h-1.2l1.5-5 .2-1.2-.1-.3a.5.5 0 0 0-.4-.1h-.6v-.3l2.8-.4zm6.7 4.3v.7c0 .4.1.9.4 1.2.3.3.8.5 1.3.5.3 0 .7 0 1-.2l1.7-1 .2.1a5.4 5.4 0 0 1-3.7 2c-.7 0-1.4-.3-1.8-.8-.4-.5-.6-1-.6-1.6 0-.9.3-1.7.7-2.5.5-.8 1.2-1.5 2-2 .7-.4 1.5-.7 2.3-.7.4 0 .8 0 1.2.3.3.2.4.5.4.8 0 .5-.2 1-.5 1.3a5 5 0 0 1-2 1.3c-.8.3-1.7.5-2.6.6zm0-.4c.7 0 1.4-.2 2-.5.6-.2 1-.6 1.5-1 .3-.3.5-.8.5-1.2 0-.2 0-.4-.2-.6a.8.8 0 0 0-.6-.2c-.7 0-1.3.4-1.8.9-.7.7-1.2 1.6-1.4 2.6zm7.4.4v.7c0 1 .8 1.7 1.7 1.7.4 0 .7 0 1.1-.2l1.6-1 .2.1a5.4 5.4 0 0 1-3.7 2c-.7 0-1.4-.3-1.8-.8-.4-.5-.6-1-.6-1.6 0-.9.3-1.8.8-2.5.5-.8 1.1-1.5 1.9-2 .7-.4 1.5-.7 2.3-.7.5 0 1 0 1.3.3.3.2.4.5.4.8 0 .5-.2 1-.6 1.3a5 5 0 0 1-2 1.3c-.8.3-1.7.5-2.6.6zm0-.4c.7 0 1.4-.2 2-.5.6-.2 1.2-.5 1.6-1 .3-.3.4-.8.4-1.2 0-.2 0-.4-.2-.6a.8.8 0 0 0-.6-.2c-.7 0-1.3.4-1.7.9-.7.7-1.2 1.6-1.4 2.6h-.1zm6.5-3.4l2.8-.5-1.2 4c.7-1.3 1.5-2.4 2.6-3.4.3-.3.6-.5 1-.6.2 0 .4 0 .5.2l.1.4c0 .3 0 .7-.2 1 0 .3-.3.4-.6.4l-.3-.1a.6.6 0 0 1-.2-.4v-.2h-.5a18.5 18.5 0 0 0-2.1 2.6c-.3.4-.5.8-.6 1.3l-.3 1.1-.3 1h-1.2l1.5-5 .2-1.3-.1-.2a.7.7 0 0 0-.4-.1h-.7v-.2zm11.8-.5l-.6 2.5h-.3c0-.6-.1-1.1-.4-1.6-.2-.3-.6-.5-1-.5-.3 0-.7 0-.9.3-.2.2-.3.4-.3.7l.1.5.5.7c.5.5 1 1 1.4 1.7.2.3.3.7.3 1.1a2 2 0 0 1-.7 1.5c-.5.5-1.1.7-1.8.7a4 4 0 0 1-1.3-.3l-.4-.1c-.3 0-.5.1-.6.4h-.3l.5-2.7h.3c0 .6.1 1.3.5 1.8.3.4.8.5 1.3.5.4 0 .7-.1 1-.4.2-.2.4-.5.4-.8 0-.2 0-.4-.2-.6l-1-1.4-.9-1.3a2 2 0 0 1-.2-.8c0-.5.2-1 .6-1.3a2 2 0 0 1 1.5-.6h.5l.5.2.5.2c.3 0 .5-.2.6-.4h.4z"/>
</svg>
