<svg xmlns="http://www.w3.org/2000/svg" viewBox="0 0 32 256">
  <symbol id="construction" viewBox="0 0 28 27">
    <path d="M3.8 20.4L11 12l1.8-2.2-1-.9-1-1-2 2-8 8c-.4.4-.7 1-.7 1.8 0 1 .8 1.8 2 1.7.6 0 1.2-.3 1.7-.9h-.1zM21.9 8l-.7-.7-.8-.7a.5.5 0 0 0-.3-.2h-.9c-.6 0-1-.2-1-.8V5c0-.1 0-.3-.2-.5L15.2 2A6.1 6.1 0 0 0 10.1.3c-.6.1-1.2.3-1.7.6-.4.2-.3.6 0 .7.7 0 1.3.1 1.8.4 1.3.5 2.1 1.6 2.1 3 0 .6-.2 1.2-.5 1.8l1.1 1 1 .8.5-.4c.3-.2.8-.3 1.3-.1l.4.3c.5.4.6 1.2.3 1.8l.4.3 1.7 1.5.3-.1 2.5-2.7.7-.8c.1-.1.2-.3 0-.5h-.1zm-7.7 7.9h3c.7 0 1 .3 1 .9v2.5c0 .7-.3 1-1 1h-5.9c-.7 0-1-.3-1-1v-2.5c0-.6.3-1 1-1h3zm9.9 0h3c.5 0 .9.3.9.9v2.6c0 .6-.4.9-1 1h-6c-.5 0-.9-.5-.9-1v-2.6c0-.6.4-1 1-1h3zm-4.8 10.8h-3c-.6 0-1-.3-1-1v-2.4c0-.7.4-1 1-1h6c.6 0 1 .4 1 .9v2.6c0 .6-.4 1-1 1h-3zM10 22.3h3c.5 0 1 .3 1 1v2.5c0 .6-.5 1-1 1h-6c-.6 0-1-.4-1-1v-2.6c0-.6.4-1 1-1h3z"/>
  </symbol>

  <symbol id="location" viewBox="0 0 16 21">
    <path d="M7.2 20.6C1.2 11.9 0 11 0 7.9A8 8 0 0 1 8 0a8 8 0 0 1 8 7.9c0 3.1-1.1 4-7.2 12.7a1 1 0 0 1-1.6 0zm.8-9.4c1.8 0 3.3-1.5 3.3-3.3C11.3 6 9.8 4.6 8 4.6a3.3 3.3 0 0 0-3.3 3.3c0 1.8 1.5 3.3 3.3 3.3z"/>
  </symbol>

  <symbol id="mail" viewBox="0 0 27 20">
    <path d="M26.5 6.6h.3l.2.2v10.7c0 1.4-1.1 2.5-2.5 2.5h-22A2.5 2.5 0 0 1 0 17.5V6.9c0-.2 0-.3.2-.3h.3l8.1 6c1.2.7 3 2.4 4.9 2.4 1.9 0 3.8-1.7 4.9-2.5 5.3-3.8 7-5 8-5.9zm-13 6.7c1.2 0 3-1.5 3.9-2.1 7-5 7.5-5.5 9.1-6.7.3-.3.5-.6.5-1v-1C27 1.1 25.9 0 24.5 0h-22A2.5 2.5 0 0 0 0 2.5v1c0 .4.2.7.5 1C2 5.7 2.6 6.2 9.6 11.2c1 .6 2.7 2.2 3.9 2.1z"/>
  </symbol>

  <symbol id="phone" viewBox="0 0 26 26">
    <path d="M25 1.2L19.9 0c-.6-.1-1.2.2-1.4.7l-2.5 5.7c-.2.5 0 1.1.4 1.4l3 2.6c-1.8 4-5 7.1-9 9L8 16.3c-.4-.4-1-.6-1.5-.4L.7 18.4c-.5.2-.8.8-.7 1.4L1.2 25c.2.5.7.9 1.2.9C15.4 26 26 15.5 26 2.4c0-.5-.4-1-1-1.2z"/>
  </symbol>

  <symbol id="planning-design" viewBox="0 0 30 24">
    <path d="M24 9.1l-.3.7c-.2.3-.4.3-.7.3-.6-.2-1-.6-1.5-1a.6.6 0 0 1-.1-.6l.3-.7a4 4 0 0 1-.7-1.3h-.8a.6.6 0 0 1-.5-.5V4.3c0-.3.2-.5.5-.5h.8l.7-1.3-.3-.6a.5.5 0 0 1 0-.8A6 6 0 0 1 23 .3c.2-.1.5 0 .7.2l.4.7h1.4l.4-.7c.1-.2.5-.3.7-.2.6.2 1 .5 1.5.8.2.2.3.5.1.8l-.3.7c.3.3.5.8.7 1.3h.8c.2 0 .5.2.5.4v1.8c0 .2-.2.4-.5.4h-.8c-.2.5-.4 1-.7 1.3l.3.7c.2.2.1.5 0 .7-.5.4-1 .7-1.6.9-.2 0-.6 0-.7-.3l-.4-.6h-1.4zm-.4-2.7c1.8 1.4 3.8-.7 2.4-2.5-1.8-1.3-3.8.7-2.4 2.5zm-5.4 7.2l1.6.7c.4.3.7.9.5 1.4a11 11 0 0 1-2 3c-.4.5-1 .6-1.4.3l-1.4-.8a8 8 0 0 1-2.5 1.5v1.5c0 .6-.4 1-1 1.1-1.1.2-2.3.2-3.5 0-.5 0-.9-.6-.9-1v-1.6c-1-.4-1.8-.9-2.6-1.5l-1.3.8c-.5.2-1 .1-1.4-.3a10 10 0 0 1-2-3 1 1 0 0 1 .5-1.4l1.6-.8a7 7 0 0 1 0-3L.8 9.9C.3 9.5.1 9 .3 8.5a12 12 0 0 1 2-3c.4-.5 1-.6 1.4-.4l1.4.8c.7-.6 1.6-1 2.5-1.4V2.9c0-.5.4-1 1-1 1.1-.3 2.3-.3 3.5 0 .5 0 1 .5 1 1v1.5c.8.4 1.7.9 2.4 1.5l1.4-.7a1 1 0 0 1 1.4.2c.8 1 1.6 2 2 3 .2.6 0 1.1-.5 1.4l-1.5.8v3zm-5.4 1c2.7-3.7-1.4-7.7-5-5-2.7 3.6 1.4 7.7 5 5zM24 23l-.4.7c-.2.2-.4.3-.7.2-.6-.2-1-.5-1.5-.8a.6.6 0 0 1-.1-.8l.3-.6a4 4 0 0 1-.7-1.3h-.8a.6.6 0 0 1-.5-.5v-1.7c0-.3.2-.5.5-.5h.8l.7-1.3-.3-.6a.5.5 0 0 1 0-.7c.5-.4 1-.7 1.6-.9.2-.1.5 0 .7.3l.4.6h1.4l.4-.7c.1-.2.5-.3.7-.2.6.2 1 .5 1.5.9.2.1.3.4.1.7l-.3.6.7 1.3h.8c.2 0 .5.2.5.5V20c0 .3-.2.5-.5.5h-.8c-.2.5-.4 1-.7 1.3l.3.6c.2.3.1.6 0 .8l-1.6.8c-.2.1-.6 0-.7-.2l-.4-.7h-1.4zm-.5-2.7c1.8 1.4 3.8-.7 2.4-2.5-1.8-1.4-3.8.7-2.4 2.5z"/>
  </symbol>

  <symbol id="project-management" viewBox="0 0 27 24">
    <path d="M18.9 3.9L23 8c.2.2.2.5 0 .7L12.9 19l-4.4.5a1 1 0 0 1-1-1l.5-4.4L18.2 4c.2-.2.5-.2.7 0zm7.5-1L24.2.5c-.7-.7-1.9-.7-2.6 0l-1.7 1.6v.6l4.2 4.3h.7l1.7-1.7c.7-.7.7-1.9 0-2.6zM18 16.1V21H3V6h10.8c.2 0 .3 0 .4-.2L16.1 4a.6.6 0 0 0-.4-1H2.3C1 3 0 4 0 5.2v16.6C0 23 1 24 2.3 24h16.4c1.3 0 2.3-1 2.3-2.3v-7.3a.6.6 0 0 0-1-.4l-1.8 1.8-.2.4z"/>
  </symbol>
</svg>
