<?xml version="1.0" standalone="no"?>
<!DOCTYPE svg PUBLIC "-//W3C//DTD SVG 20010904//EN"
 "http://www.w3.org/TR/2001/REC-SVG-20010904/DTD/svg10.dtd">
<svg version="1.0" xmlns="http://www.w3.org/2000/svg"
 width="226.000000pt" height="226.000000pt" viewBox="0 0 226.000000 226.000000"
 preserveAspectRatio="xMidYMid meet">
<metadata>
Created by potrace 1.11, written by Peter Selinger 2001-2013
</metadata>
<g transform="translate(0.000000,226.000000) scale(0.100000,-0.100000)"
fill="#000000" stroke="none">
<path d="M323 2252 l-23 -3 0 -810 0 -809 38 -1 c37 -1 157 -1 178 0 7 1 56
37 110 82 238 195 352 288 456 372 109 89 125 109 133 167 10 82 -48 152 -180
215 -62 30 -173 65 -204 65 -8 0 -11 -58 -11 -189 l0 -189 -214 -146 c-118
-80 -216 -146 -219 -146 -2 0 -4 312 -3 694 1 687 1 695 -19 698 -11 2 -30 2
-42 0z"/>
<path d="M837 2252 c-15 -3 -17 -29 -17 -264 l0 -261 118 123 c64 67 176 184
249 259 72 75 130 137 128 139 -4 5 -457 8 -478 4z"/>
<path d="M1727 2247 c-12 -4 -27 -14 -33 -22 -6 -8 -56 -63 -111 -122 -55 -59
-111 -120 -124 -134 -13 -15 -67 -73 -120 -130 -247 -268 -259 -281 -259 -300
0 -22 6 -26 133 -93 139 -73 256 -153 284 -195 31 -45 38 -93 23 -147 -14 -47
-20 -55 -312 -358 -58 -61 -105 -113 -103 -114 6 -7 846 -5 852 2 3 3 7 368 7
811 l1 805 -25 1 c-160 3 -194 3 -213 -4z"/>
<path d="M309 341 c-6 -2 0 -9 13 -15 22 -11 23 -15 23 -151 0 -139 0 -140
-25 -152 -25 -12 -24 -13 13 -14 53 -1 104 -1 125 1 13 1 12 3 -5 10 -21 8
-23 16 -23 75 0 36 3 65 8 65 4 -1 28 -28 55 -62 43 -56 46 -62 30 -74 -17
-12 -16 -13 7 -15 50 -2 154 1 158 6 3 2 -7 9 -20 14 -20 8 -99 95 -159 176
-8 11 90 95 140 121 l26 14 -30 1 c-16 0 -43 2 -58 3 -15 1 -33 -2 -40 -6 -8
-5 -7 -8 6 -8 31 0 18 -27 -35 -71 -97 -81 -88 -80 -88 -5 0 60 2 68 23 76 13
5 16 9 7 10 -44 4 -142 5 -151 1z"/>
<path d="M775 339 c-84 -26 -133 -132 -103 -223 33 -99 154 -143 259 -92 80
38 111 172 59 250 -42 62 -134 90 -215 65z m108 -24 c28 -21 46 -83 43 -151
-4 -73 -21 -113 -58 -134 -25 -13 -31 -13 -55 0 -41 23 -60 72 -58 145 2 34 8
78 14 97 17 52 75 73 114 43z"/>
<path d="M1033 338 c-2 -5 3 -8 11 -8 25 0 28 -17 28 -128 -1 -179 0 -173 -22
-179 -49 -13 -10 -18 121 -16 78 1 143 3 144 5 2 2 6 28 10 58 l7 55 -24 -35
c-13 -19 -35 -40 -48 -47 -32 -16 -85 -17 -97 -1 -10 14 -11 113 -1 123 13 13
47 -16 53 -46 4 -17 9 -28 13 -25 9 9 9 154 0 168 -5 9 -8 7 -8 -7 0 -29 -29
-67 -48 -63 -23 4 -25 127 -2 129 61 5 104 -16 123 -59 11 -26 12 -25 15 22 2
26 1 50 -1 52 -8 8 -269 9 -274 2z"/>
<path d="M1353 338 c-2 -5 3 -8 12 -8 25 0 31 -37 29 -165 -2 -147 0 -134 -26
-145 -21 -8 -22 -9 -3 -10 76 -5 155 -4 155 3 0 4 -7 7 -15 7 -8 0 -18 8 -23
18 -12 23 -9 115 3 118 6 2 33 -29 60 -68 54 -77 78 -91 140 -77 25 5 27 7 12
14 -10 4 -39 37 -64 72 -37 52 -43 67 -32 74 8 5 17 9 21 9 4 0 14 12 21 28
30 59 -7 125 -75 131 -74 6 -210 5 -215 -1z m200 -36 c27 -24 23 -88 -7 -108
-14 -8 -35 -14 -48 -12 -21 3 -23 8 -23 68 0 56 3 66 20 71 22 6 31 3 58 -19z"/>
<path d="M1759 321 c-35 -36 -39 -86 -9 -124 12 -15 47 -40 79 -57 71 -38 90
-71 61 -100 -40 -40 -106 -15 -138 52 -22 45 -23 44 -25 -39 -2 -55 1 -61 20
-42 8 8 20 8 45 0 89 -29 167 15 168 96 0 47 -26 76 -112 119 -56 28 -74 60
-50 87 8 9 26 17 40 17 28 0 91 -59 93 -87 1 -10 4 -4 8 12 8 40 1 102 -10 84
-6 -11 -14 -11 -42 -1 -57 20 -95 15 -128 -17z"/>
</g>
</svg>
