<?xml version="1.0" standalone="no"?>
<!DOCTYPE svg PUBLIC "-//W3C//DTD SVG 20010904//EN"
 "http://www.w3.org/TR/2001/REC-SVG-20010904/DTD/svg10.dtd">
<svg version="1.0" xmlns="http://www.w3.org/2000/svg"
 width="167.000000pt" height="167.000000pt" viewBox="0 0 167.000000 167.000000"
 preserveAspectRatio="xMidYMid meet">
<metadata>
Created by potrace 1.11, written by Peter Selinger 2001-2013
</metadata>
<g transform="translate(0.000000,167.000000) scale(0.100000,-0.100000)"
fill="#000000" stroke="none">
<path d="M27 1652 l-27 -3 0 -810 c0 -763 1 -809 18 -810 99 -6 213 1 225 12
8 8 155 129 328 271 173 141 320 265 326 277 34 56 21 145 -28 188 -75 67
-210 132 -306 148 l-43 7 0 -190 0 -190 -214 -146 c-118 -80 -216 -146 -219
-146 -2 0 -4 309 -5 688 0 378 -1 690 -1 693 -1 10 -23 15 -54 11z"/>
<path d="M530 1652 c-12 -4 -14 -512 -3 -512 4 0 30 24 58 54 27 30 136 143
240 251 105 108 191 200 192 204 3 6 -468 9 -487 3z"/>
<path d="M1420 1648 c-10 -4 -22 -13 -27 -21 -4 -8 -51 -61 -103 -117 -52 -57
-100 -108 -105 -114 -6 -6 -40 -43 -75 -81 -36 -39 -113 -122 -171 -185 -144
-155 -161 -177 -157 -197 2 -10 31 -33 68 -52 226 -116 340 -199 365 -265 34
-88 12 -138 -116 -271 -37 -38 -91 -95 -120 -125 -28 -30 -81 -85 -116 -122
-36 -38 -59 -68 -52 -69 77 -4 824 -3 836 2 15 5 16 78 16 807 0 442 -3 805
-6 808 -8 8 -215 10 -237 2z"/>
</g>
</svg>
